<svg width="18" height="18" viewBox="0 0 24 24" fill="none" xmlns="http://www.w3.org/2000/svg">
  <path d="M3 3L21 21" stroke="currentColor" stroke-width="1.8" stroke-linecap="round"/>
  <path d="M10.6 10.6C10.2 11 10 11.5 10 12C10 13.1 10.9 14 12 14C12.5 14 13 13.8 13.4 13.4" stroke="currentColor" stroke-width="1.8" stroke-linecap="round"/>
  <path d="M9.9 5.2C10.6 5.1 11.3 5 12 5C18 5 22 12 22 12C21.4 13 20.6 14 19.6 15" stroke="currentColor" stroke-width="1.8" stroke-linecap="round"/>
  <path d="M6.1 6.1C4.3 7.5 3 9.5 2 12C2 12 6 19 12 19C13.3 19 14.5 18.7 15.6 18.2" stroke="currentColor" stroke-width="1.8" stroke-linecap="round"/>
</svg>
