<svg
  width="20"
  height="20"
  viewBox="0 0 24 24"
  fill="none"
  xmlns="http://www.w3.org/2000/svg"
>
  <!-- Door -->
  <path
    d="M4 4H11V6H6V18H11V20H4C3.44772 20 3 19.5523 3 19V5C3 4.44772 3.44772 4 4 4Z"
    fill="#DC2626"
  />

  <!-- Arrow -->
  <path
    d="M14.2929 7.29289C14.6834 6.90237 15.3166 6.90237 15.7071 7.29289L19.7071 11.2929C20.0976 11.6834 20.0976 12.3166 19.7071 12.7071L15.7071 16.7071C15.3166 17.0976 14.6834 17.0976 14.2929 16.7071C13.9024 16.3166 13.9024 15.6834 14.2929 15.2929L16.5858 13H9C8.44772 13 8 12.5523 8 12C8 11.4477 8.44772 11 9 11H16.5858L14.2929 8.70711C13.9024 8.31658 13.9024 7.68342 14.2929 7.29289Z"
    fill="#DC2626"
  />
</svg>
